# xmcd
# 
# Track frame offsets:
#     150
#     11210
#     25089
#     40890
#     64770
#     84499
#     100729
#     113354
#     132125
#     149040
#     166785
#     187511
#     203523
#     213651
#     227971
#     243226
#     261146
#     280832
#     294386
#     310813
# 
# Disc length: 4277
# 
# Revision: 0
# Processed by: cddbd v1.5.2PL0 Copyright (c) Steve Scherf et al.
# Submitted via: fre:ac v1.0.17
# 
DISCID=0f10b314
DTITLE=John Lee Hooker - The Journey Disc 2
DYEAR=0
DGENRE=Blues
TTITLE0=I Need Some Money
TTITLE1=I Want To Talk About You
TTITLE2=Democrat Man
TTITLE3=I'm Wanderin'
TTITLE4=Gonna Use My Rod
TTITLE5=Wednesday Evenin' Blues
TTITLE6=No More Doggin'
TTITLE7=One Of These Days
TTITLE8=I Believe I'll Go Back Home
TTITLE9=You're Leavin' Me, Baby
TTITLE10=That's My Story
TTITLE11=Black Snake
TTITLE12=How Long Blues
TTITLE13=14 Pea Vine Special
TTITLE14=Tupelo Blues
TTITLE15=I'm Prison Bound
TTITLE16=Behind The Plow
TTITLE17=Water Boy
TTITLE18=Good Mornin', Lil' School Girl
TTITLE19=Bundle Up And Go
EXTD=
EXTT0=
EXTT1=
EXTT2=
EXTT3=
EXTT4=
EXTT5=
EXTT6=
EXTT7=
EXTT8=
EXTT9=
EXTT10=
EXTT11=
EXTT12=
EXTT13=
EXTT14=
EXTT15=
EXTT16=
EXTT17=
EXTT18=
EXTT19=
PLAYORDER=
